<svg xmlns="http://www.w3.org/2000/svg" xmlns:xlink="http://www.w3.org/1999/xlink" width="500" zoomAndPan="magnify" viewBox="0 0 375 374.999991" height="500" preserveAspectRatio="xMidYMid meet" version="1.0"><defs><clipPath id="fe355dd4e7"><path d="M 55.078125 0 L 283 0 L 283 228 L 55.078125 228 Z M 55.078125 0 " clip-rule="nonzero"/></clipPath><clipPath id="0bd6a7dd17"><path d="M 92 68 L 319.828125 68 L 319.828125 375 L 92 375 Z M 92 68 " clip-rule="nonzero"/></clipPath></defs><g clip-path="url(#fe355dd4e7)"><path fill="#71717a" d="M 168.730469 227.667969 C 106.085938 227.667969 55.078125 176.660156 55.078125 114.015625 C 55.078125 51.371094 106.007812 0.363281 168.730469 0.363281 C 231.453125 0.363281 282.382812 51.371094 282.382812 114.015625 C 282.382812 117.203125 279.832031 119.753906 276.644531 119.753906 C 273.457031 119.753906 270.90625 117.203125 270.90625 114.015625 C 270.90625 57.75 225.078125 11.921875 168.808594 11.921875 C 112.542969 11.921875 66.632812 57.75 66.632812 114.015625 C 66.632812 170.285156 112.460938 216.113281 168.730469 216.113281 C 171.917969 216.113281 174.46875 218.664062 174.46875 221.851562 C 174.46875 225.117188 171.917969 227.667969 168.730469 227.667969 Z M 168.730469 227.667969 " fill-opacity="1" fill-rule="nonzero"/></g><g clip-path="url(#0bd6a7dd17)"><path fill="#09090b" d="M 319.921875 260.984375 C 319.921875 323.628906 268.914062 374.636719 206.269531 374.636719 C 143.625 374.636719 92.617188 323.628906 92.617188 260.984375 C 92.617188 257.796875 95.246094 255.164062 98.433594 255.164062 C 101.621094 255.164062 104.253906 257.796875 104.253906 260.984375 C 104.253906 317.25 150.082031 363.078125 206.347656 363.078125 C 262.617188 363.078125 308.445312 317.25 308.445312 260.984375 C 308.445312 206.628906 265.726562 162.074219 212.085938 159.046875 L 212.085938 351.601562 C 212.085938 354.789062 209.535156 357.339844 206.347656 357.339844 C 203.160156 357.339844 200.53125 354.789062 200.53125 351.601562 L 200.53125 74.007812 C 200.53125 70.820312 203.160156 68.269531 206.347656 68.269531 C 209.535156 68.269531 212.085938 70.820312 212.085938 74.007812 L 212.085938 147.570312 C 272.023438 150.519531 319.921875 200.253906 319.921875 260.984375 Z M 319.921875 260.984375 " fill-opacity="1" fill-rule="nonzero"/></g></svg>