<svg xmlns="http://www.w3.org/2000/svg" xmlns:xlink="http://www.w3.org/1999/xlink" width="500" zoomAndPan="magnify" viewBox="0 0 375 374.999991" height="500" preserveAspectRatio="xMidYMid meet" version="1.0"><defs><g/><clipPath id="d99a3cce59"><path d="M 55.078125 0 L 283 0 L 283 228 L 55.078125 228 Z M 55.078125 0 " clip-rule="nonzero"/></clipPath><clipPath id="3a86b31acc"><path d="M 92 68 L 319.828125 68 L 319.828125 375 L 92 375 Z M 92 68 " clip-rule="nonzero"/></clipPath></defs><g fill="#ffffff" fill-opacity="1"><g transform="translate(112.561095, 283.544513)"><g><path d="M 8.265625 0.328125 C 6.523438 0.328125 5.097656 0.0078125 3.984375 -0.625 C 2.878906 -1.257812 1.96875 -2.078125 1.25 -3.078125 L 2.9375 -4.46875 C 3.695312 -3.519531 4.5 -2.816406 5.34375 -2.359375 C 6.1875 -1.898438 7.191406 -1.671875 8.359375 -1.671875 C 9.765625 -1.671875 10.835938 -1.992188 11.578125 -2.640625 C 12.316406 -3.285156 12.6875 -4.191406 12.6875 -5.359375 C 12.6875 -6.296875 12.414062 -7.03125 11.875 -7.5625 C 11.34375 -8.09375 10.410156 -8.46875 9.078125 -8.6875 L 6.90625 -9.046875 C 5.96875 -9.210938 5.175781 -9.460938 4.53125 -9.796875 C 3.894531 -10.128906 3.382812 -10.53125 3 -11 C 2.613281 -11.46875 2.335938 -11.984375 2.171875 -12.546875 C 2.003906 -13.117188 1.921875 -13.707031 1.921875 -14.3125 C 1.921875 -16.09375 2.5 -17.4375 3.65625 -18.34375 C 4.820312 -19.25 6.394531 -19.703125 8.375 -19.703125 C 9.9375 -19.703125 11.25 -19.441406 12.3125 -18.921875 C 13.375 -18.410156 14.226562 -17.679688 14.875 -16.734375 L 13.234375 -15.3125 C 12.703125 -16.019531 12.054688 -16.59375 11.296875 -17.03125 C 10.535156 -17.476562 9.554688 -17.703125 8.359375 -17.703125 C 7.035156 -17.703125 6.023438 -17.425781 5.328125 -16.875 C 4.628906 -16.320312 4.28125 -15.488281 4.28125 -14.375 C 4.28125 -13.5 4.539062 -12.789062 5.0625 -12.25 C 5.59375 -11.707031 6.539062 -11.316406 7.90625 -11.078125 L 9.984375 -10.71875 C 10.929688 -10.550781 11.726562 -10.300781 12.375 -9.96875 C 13.019531 -9.632812 13.539062 -9.234375 13.9375 -8.765625 C 14.34375 -8.304688 14.628906 -7.789062 14.796875 -7.21875 C 14.960938 -6.644531 15.046875 -6.039062 15.046875 -5.40625 C 15.046875 -3.613281 14.457031 -2.207031 13.28125 -1.1875 C 12.101562 -0.175781 10.429688 0.328125 8.265625 0.328125 Z M 8.265625 0.328125 "/></g></g></g><g fill="#ffffff" fill-opacity="1"><g transform="translate(129.211068, 283.544513)"><g><path d="M 2.5 0 L 2.5 -19.375 L 14.4375 -19.375 L 14.4375 -17.34375 L 4.828125 -17.34375 L 4.828125 -10.828125 L 14.09375 -10.828125 L 14.09375 -8.796875 L 4.828125 -8.796875 L 4.828125 -2.03125 L 14.4375 -2.03125 L 14.4375 0 Z M 2.5 0 "/></g></g></g><g fill="#ffffff" fill-opacity="1"><g transform="translate(145.861042, 283.544513)"><g><path d="M 2.4375 -19.375 L 9.015625 -19.375 C 10.679688 -19.375 11.984375 -18.921875 12.921875 -18.015625 C 13.867188 -17.109375 14.34375 -15.894531 14.34375 -14.375 C 14.34375 -13.207031 14.0625 -12.289062 13.5 -11.625 C 12.9375 -10.957031 12.210938 -10.488281 11.328125 -10.21875 L 11.328125 -10.125 C 12.410156 -9.863281 13.300781 -9.378906 14 -8.671875 C 14.707031 -7.960938 15.0625 -6.929688 15.0625 -5.578125 C 15.0625 -4.796875 14.929688 -4.0625 14.671875 -3.375 C 14.421875 -2.695312 14.054688 -2.109375 13.578125 -1.609375 C 13.109375 -1.109375 12.554688 -0.710938 11.921875 -0.421875 C 11.285156 -0.140625 10.59375 0 9.84375 0 L 2.4375 0 Z M 9.15625 -2.03125 C 10.226562 -2.03125 11.066406 -2.269531 11.671875 -2.75 C 12.285156 -3.226562 12.59375 -3.96875 12.59375 -4.96875 L 12.59375 -6.109375 C 12.59375 -7.085938 12.285156 -7.820312 11.671875 -8.3125 C 11.066406 -8.800781 10.226562 -9.046875 9.15625 -9.046875 L 4.765625 -9.046875 L 4.765625 -2.03125 Z M 8.765625 -10.96875 C 9.742188 -10.96875 10.507812 -11.179688 11.0625 -11.609375 C 11.625 -12.046875 11.90625 -12.707031 11.90625 -13.59375 L 11.90625 -14.6875 C 11.90625 -15.570312 11.625 -16.234375 11.0625 -16.671875 C 10.507812 -17.117188 9.742188 -17.34375 8.765625 -17.34375 L 4.765625 -17.34375 L 4.765625 -10.96875 Z M 8.765625 -10.96875 "/></g></g></g><g fill="#ffffff" fill-opacity="1"><g transform="translate(162.511015, 283.544513)"><g><path d="M 13.34375 0 L 11.703125 -5.515625 L 4.90625 -5.515625 L 3.28125 0 L 0.859375 0 L 6.796875 -19.375 L 9.875 -19.375 L 15.8125 0 Z M 8.4375 -16.90625 L 8.1875 -16.90625 L 5.46875 -7.546875 L 11.15625 -7.546875 Z M 8.4375 -16.90625 "/></g></g></g><g fill="#ffffff" fill-opacity="1"><g transform="translate(179.160989, 283.544513)"><g><path d="M 6.015625 0.328125 C 5.171875 0.328125 4.421875 0.191406 3.765625 -0.078125 C 3.109375 -0.359375 2.550781 -0.742188 2.09375 -1.234375 C 1.644531 -1.722656 1.296875 -2.289062 1.046875 -2.9375 C 0.804688 -3.582031 0.6875 -4.273438 0.6875 -5.015625 C 0.6875 -5.503906 0.742188 -6.003906 0.859375 -6.515625 C 0.972656 -7.035156 1.164062 -7.539062 1.4375 -8.03125 C 1.71875 -8.519531 2.082031 -8.988281 2.53125 -9.4375 C 2.988281 -9.894531 3.570312 -10.300781 4.28125 -10.65625 C 3.757812 -11.320312 3.328125 -12.003906 2.984375 -12.703125 C 2.640625 -13.410156 2.46875 -14.179688 2.46875 -15.015625 C 2.46875 -15.710938 2.601562 -16.347656 2.875 -16.921875 C 3.144531 -17.492188 3.503906 -17.988281 3.953125 -18.40625 C 4.410156 -18.820312 4.941406 -19.140625 5.546875 -19.359375 C 6.160156 -19.585938 6.8125 -19.703125 7.5 -19.703125 C 8.101562 -19.703125 8.660156 -19.613281 9.171875 -19.4375 C 9.679688 -19.257812 10.128906 -19.03125 10.515625 -18.75 C 10.898438 -18.476562 11.226562 -18.164062 11.5 -17.8125 C 11.769531 -17.457031 11.96875 -17.109375 12.09375 -16.765625 L 10.265625 -15.8125 C 10.023438 -16.382812 9.664062 -16.859375 9.1875 -17.234375 C 8.707031 -17.617188 8.101562 -17.8125 7.375 -17.8125 C 6.539062 -17.8125 5.878906 -17.554688 5.390625 -17.046875 C 4.898438 -16.546875 4.65625 -15.894531 4.65625 -15.09375 L 4.65625 -14.875 C 4.65625 -14.582031 4.691406 -14.296875 4.765625 -14.015625 C 4.847656 -13.734375 4.96875 -13.441406 5.125 -13.140625 C 5.28125 -12.835938 5.484375 -12.507812 5.734375 -12.15625 C 5.984375 -11.800781 6.28125 -11.40625 6.625 -10.96875 L 9.125 -7.875 L 11.15625 -5.390625 L 11.296875 -5.390625 C 11.421875 -6.109375 11.5 -6.925781 11.53125 -7.84375 C 11.570312 -8.769531 11.613281 -9.679688 11.65625 -10.578125 L 15.5625 -10.578125 L 15.5625 -8.71875 L 13.484375 -8.71875 C 13.429688 -8.269531 13.375 -7.847656 13.3125 -7.453125 C 13.257812 -7.066406 13.195312 -6.6875 13.125 -6.3125 C 13.050781 -5.945312 12.96875 -5.578125 12.875 -5.203125 C 12.78125 -4.828125 12.648438 -4.425781 12.484375 -4 L 15.875 0 L 13.234375 0 L 10.828125 -2.859375 L 10.6875 -2.859375 C 10.425781 -1.898438 9.894531 -1.128906 9.09375 -0.546875 C 8.300781 0.0351562 7.273438 0.328125 6.015625 0.328125 Z M 6.609375 -1.640625 C 7.398438 -1.640625 8.097656 -1.804688 8.703125 -2.140625 C 9.316406 -2.472656 9.800781 -2.9375 10.15625 -3.53125 L 5.328125 -9.359375 C 4.472656 -8.816406 3.867188 -8.207031 3.515625 -7.53125 C 3.171875 -6.851562 3 -6.117188 3 -5.328125 L 3 -4.90625 C 3 -3.90625 3.332031 -3.109375 4 -2.515625 C 4.664062 -1.929688 5.535156 -1.640625 6.609375 -1.640625 Z M 6.609375 -1.640625 "/></g></g></g><g fill="#ffffff" fill-opacity="1"><g transform="translate(195.810962, 283.544513)"><g><path d="M 2.4375 -19.375 L 9.015625 -19.375 C 10.679688 -19.375 11.984375 -18.921875 12.921875 -18.015625 C 13.867188 -17.109375 14.34375 -15.894531 14.34375 -14.375 C 14.34375 -13.207031 14.0625 -12.289062 13.5 -11.625 C 12.9375 -10.957031 12.210938 -10.488281 11.328125 -10.21875 L 11.328125 -10.125 C 12.410156 -9.863281 13.300781 -9.378906 14 -8.671875 C 14.707031 -7.960938 15.0625 -6.929688 15.0625 -5.578125 C 15.0625 -4.796875 14.929688 -4.0625 14.671875 -3.375 C 14.421875 -2.695312 14.054688 -2.109375 13.578125 -1.609375 C 13.109375 -1.109375 12.554688 -0.710938 11.921875 -0.421875 C 11.285156 -0.140625 10.59375 0 9.84375 0 L 2.4375 0 Z M 9.15625 -2.03125 C 10.226562 -2.03125 11.066406 -2.269531 11.671875 -2.75 C 12.285156 -3.226562 12.59375 -3.96875 12.59375 -4.96875 L 12.59375 -6.109375 C 12.59375 -7.085938 12.285156 -7.820312 11.671875 -8.3125 C 11.066406 -8.800781 10.226562 -9.046875 9.15625 -9.046875 L 4.765625 -9.046875 L 4.765625 -2.03125 Z M 8.765625 -10.96875 C 9.742188 -10.96875 10.507812 -11.179688 11.0625 -11.609375 C 11.625 -12.046875 11.90625 -12.707031 11.90625 -13.59375 L 11.90625 -14.6875 C 11.90625 -15.570312 11.625 -16.234375 11.0625 -16.671875 C 10.507812 -17.117188 9.742188 -17.34375 8.765625 -17.34375 L 4.765625 -17.34375 L 4.765625 -10.96875 Z M 8.765625 -10.96875 "/></g></g></g><g fill="#ffffff" fill-opacity="1"><g transform="translate(212.460935, 283.544513)"><g><path d="M 13.34375 0 L 11.703125 -5.515625 L 4.90625 -5.515625 L 3.28125 0 L 0.859375 0 L 6.796875 -19.375 L 9.875 -19.375 L 15.8125 0 Z M 8.4375 -16.90625 L 8.1875 -16.90625 L 5.46875 -7.546875 L 11.15625 -7.546875 Z M 8.4375 -16.90625 "/></g></g></g><g fill="#ffffff" fill-opacity="1"><g transform="translate(229.110909, 283.544513)"><g><path d="M 4.828125 0 L 2.5 0 L 2.5 -19.375 L 9.546875 -19.375 C 11.335938 -19.375 12.703125 -18.878906 13.640625 -17.890625 C 14.585938 -16.910156 15.0625 -15.546875 15.0625 -13.796875 C 15.0625 -12.222656 14.65625 -10.960938 13.84375 -10.015625 C 13.03125 -9.078125 11.847656 -8.53125 10.296875 -8.375 L 15.234375 0 L 12.625 0 L 7.90625 -8.265625 L 4.828125 -8.265625 Z M 9.484375 -10.234375 C 10.472656 -10.234375 11.238281 -10.476562 11.78125 -10.96875 C 12.320312 -11.457031 12.59375 -12.15625 12.59375 -13.0625 L 12.59375 -14.515625 C 12.59375 -15.421875 12.320312 -16.117188 11.78125 -16.609375 C 11.238281 -17.097656 10.472656 -17.34375 9.484375 -17.34375 L 4.828125 -17.34375 L 4.828125 -10.234375 Z M 9.484375 -10.234375 "/></g></g></g><g fill="#ffffff" fill-opacity="1"><g transform="translate(245.760882, 283.544513)"><g><path d="M 9.484375 -17.34375 L 9.484375 0 L 7.15625 0 L 7.15625 -17.34375 L 0.6875 -17.34375 L 0.6875 -19.375 L 15.953125 -19.375 L 15.953125 -17.34375 Z M 9.484375 -17.34375 "/></g></g></g><g fill="#ffffff" fill-opacity="1"><g transform="translate(144.350092, 298.654989)"><g><path d="M 3.890625 0.140625 C 2.921875 0.140625 2.179688 -0.203125 1.671875 -0.890625 C 1.171875 -1.578125 0.921875 -2.671875 0.921875 -4.171875 C 0.921875 -5.660156 1.171875 -6.75 1.671875 -7.4375 C 2.179688 -8.132812 2.921875 -8.484375 3.890625 -8.484375 C 4.503906 -8.484375 5.003906 -8.320312 5.390625 -8 C 5.773438 -7.675781 6.0625 -7.265625 6.25 -6.765625 L 5.875 -6.609375 C 5.707031 -7.066406 5.460938 -7.425781 5.140625 -7.6875 C 4.816406 -7.957031 4.398438 -8.09375 3.890625 -8.09375 C 3.066406 -8.09375 2.445312 -7.796875 2.03125 -7.203125 C 1.613281 -6.617188 1.40625 -5.757812 1.40625 -4.625 L 1.40625 -3.71875 C 1.40625 -2.582031 1.613281 -1.71875 2.03125 -1.125 C 2.445312 -0.539062 3.066406 -0.25 3.890625 -0.25 C 4.398438 -0.25 4.816406 -0.378906 5.140625 -0.640625 C 5.460938 -0.910156 5.707031 -1.273438 5.875 -1.734375 L 6.25 -1.578125 C 6.0625 -1.078125 5.773438 -0.664062 5.390625 -0.34375 C 5.003906 -0.0195312 4.503906 0.140625 3.890625 0.140625 Z M 3.890625 0.140625 "/></g></g></g><g fill="#ffffff" fill-opacity="1"><g transform="translate(157.535705, 298.654989)"><g><path d="M 3.578125 0.140625 C 2.671875 0.140625 1.976562 -0.203125 1.5 -0.890625 C 1.03125 -1.585938 0.796875 -2.679688 0.796875 -4.171875 C 0.796875 -5.660156 1.03125 -6.75 1.5 -7.4375 C 1.976562 -8.132812 2.671875 -8.484375 3.578125 -8.484375 C 4.492188 -8.484375 5.1875 -8.132812 5.65625 -7.4375 C 6.132812 -6.75 6.375 -5.660156 6.375 -4.171875 C 6.375 -2.679688 6.132812 -1.585938 5.65625 -0.890625 C 5.1875 -0.203125 4.492188 0.140625 3.578125 0.140625 Z M 3.578125 -0.25 C 4.359375 -0.25 4.9375 -0.539062 5.3125 -1.125 C 5.695312 -1.71875 5.890625 -2.582031 5.890625 -3.71875 L 5.890625 -4.625 C 5.890625 -5.757812 5.695312 -6.617188 5.3125 -7.203125 C 4.9375 -7.796875 4.359375 -8.09375 3.578125 -8.09375 C 2.804688 -8.09375 2.226562 -7.796875 1.84375 -7.203125 C 1.46875 -6.617188 1.28125 -5.757812 1.28125 -4.625 L 1.28125 -3.71875 C 1.28125 -2.582031 1.46875 -1.71875 1.84375 -1.125 C 2.226562 -0.539062 2.804688 -0.25 3.578125 -0.25 Z M 3.578125 -0.25 "/></g></g></g><g fill="#ffffff" fill-opacity="1"><g transform="translate(170.721317, 298.654989)"><g><path d="M 5.796875 -7.703125 L 5.75 -7.703125 L 3.578125 -2.828125 L 1.421875 -7.703125 L 1.375 -7.703125 L 1.375 0 L 0.96875 0 L 0.96875 -8.34375 L 1.5625 -8.34375 L 3.578125 -3.796875 L 3.625 -3.796875 L 5.625 -8.34375 L 6.203125 -8.34375 L 6.203125 0 L 5.796875 0 Z M 5.796875 -7.703125 "/></g></g></g><g fill="#ffffff" fill-opacity="1"><g transform="translate(183.90693, 298.654989)"><g><path d="M 1.25 0 L 1.25 -8.34375 L 4.1875 -8.34375 C 4.894531 -8.34375 5.425781 -8.132812 5.78125 -7.71875 C 6.144531 -7.3125 6.328125 -6.757812 6.328125 -6.0625 C 6.328125 -5.363281 6.144531 -4.804688 5.78125 -4.390625 C 5.425781 -3.972656 4.894531 -3.765625 4.1875 -3.765625 L 1.671875 -3.765625 L 1.671875 0 Z M 1.671875 -4.15625 L 4.1875 -4.15625 C 4.46875 -4.15625 4.710938 -4.195312 4.921875 -4.28125 C 5.140625 -4.375 5.316406 -4.492188 5.453125 -4.640625 C 5.597656 -4.785156 5.703125 -4.957031 5.765625 -5.15625 C 5.835938 -5.363281 5.875 -5.578125 5.875 -5.796875 L 5.875 -6.328125 C 5.875 -6.535156 5.835938 -6.738281 5.765625 -6.9375 C 5.703125 -7.144531 5.597656 -7.320312 5.453125 -7.46875 C 5.316406 -7.613281 5.140625 -7.726562 4.921875 -7.8125 C 4.710938 -7.90625 4.46875 -7.953125 4.1875 -7.953125 L 1.671875 -7.953125 Z M 1.671875 -4.15625 "/></g></g></g><g fill="#ffffff" fill-opacity="1"><g transform="translate(197.092543, 298.654989)"><g><path d="M 6.15625 0 L 5.265625 -2.703125 L 1.90625 -2.703125 L 1.015625 0 L 0.5625 0 L 3.296875 -8.34375 L 3.890625 -8.34375 L 6.609375 0 Z M 3.609375 -7.859375 L 3.546875 -7.859375 L 2.015625 -3.078125 L 5.15625 -3.078125 Z M 3.609375 -7.859375 "/></g></g></g><g fill="#ffffff" fill-opacity="1"><g transform="translate(210.278155, 298.654989)"><g><path d="M 1.578125 -7.765625 L 1.53125 -7.765625 L 1.53125 0 L 1.125 0 L 1.125 -8.34375 L 1.75 -8.34375 L 5.59375 -0.59375 L 5.640625 -0.59375 L 5.640625 -8.34375 L 6.046875 -8.34375 L 6.046875 0 L 5.421875 0 Z M 1.578125 -7.765625 "/></g></g></g><g fill="#ffffff" fill-opacity="1"><g transform="translate(223.463768, 298.654989)"><g><path d="M 3.375 0 L 3.375 -3.453125 L 0.296875 -8.34375 L 0.796875 -8.34375 L 3.578125 -3.90625 L 3.609375 -3.90625 L 6.390625 -8.34375 L 6.875 -8.34375 L 3.796875 -3.453125 L 3.796875 0 Z M 3.375 0 "/></g></g></g><g clip-path="url(#d99a3cce59)"><path fill="#6b7280" d="M 168.730469 227.667969 C 106.085938 227.667969 55.078125 176.660156 55.078125 114.015625 C 55.078125 51.371094 106.007812 0.363281 168.730469 0.363281 C 231.453125 0.363281 282.382812 51.371094 282.382812 114.015625 C 282.382812 117.203125 279.832031 119.753906 276.644531 119.753906 C 273.457031 119.753906 270.90625 117.203125 270.90625 114.015625 C 270.90625 57.75 225.078125 11.921875 168.808594 11.921875 C 112.542969 11.921875 66.632812 57.75 66.632812 114.015625 C 66.632812 170.285156 112.460938 216.113281 168.730469 216.113281 C 171.917969 216.113281 174.46875 218.664062 174.46875 221.851562 C 174.46875 225.117188 171.917969 227.667969 168.730469 227.667969 Z M 168.730469 227.667969 " fill-opacity="1" fill-rule="nonzero"/></g><g clip-path="url(#3a86b31acc)"><path fill="#f9fafb" d="M 319.921875 260.984375 C 319.921875 323.628906 268.914062 374.636719 206.269531 374.636719 C 143.625 374.636719 92.617188 323.628906 92.617188 260.984375 C 92.617188 257.796875 95.246094 255.164062 98.433594 255.164062 C 101.621094 255.164062 104.253906 257.796875 104.253906 260.984375 C 104.253906 317.25 150.082031 363.078125 206.347656 363.078125 C 262.617188 363.078125 308.445312 317.25 308.445312 260.984375 C 308.445312 206.628906 265.726562 162.074219 212.085938 159.046875 L 212.085938 351.601562 C 212.085938 354.789062 209.535156 357.339844 206.347656 357.339844 C 203.160156 357.339844 200.53125 354.789062 200.53125 351.601562 L 200.53125 74.007812 C 200.53125 70.820312 203.160156 68.269531 206.347656 68.269531 C 209.535156 68.269531 212.085938 70.820312 212.085938 74.007812 L 212.085938 147.570312 C 272.023438 150.519531 319.921875 200.253906 319.921875 260.984375 Z M 319.921875 260.984375 " fill-opacity="1" fill-rule="nonzero"/></g></svg>