<svg xmlns="http://www.w3.org/2000/svg" xmlns:xlink="http://www.w3.org/1999/xlink" width="250" zoomAndPan="magnify" viewBox="0 0 187.5 187.499992" height="250" preserveAspectRatio="xMidYMid meet" version="1.0"><defs><g/><clipPath id="d90aa2ff7f"><path d="M 6 55.625 L 41 55.625 L 41 80 L 6 80 Z M 6 55.625 " clip-rule="nonzero"/></clipPath><clipPath id="03d0c398d3"><path d="M 0 55.625 L 36 55.625 L 36 96 L 0 96 Z M 0 55.625 " clip-rule="nonzero"/></clipPath></defs><g clip-path="url(#d90aa2ff7f)"><path stroke-linecap="butt" transform="matrix(0.912861, 0, 0, 0.922286, 0.000004, 55.630159)" fill="none" stroke-linejoin="miter" d="M 27.377873 14.915716 C 27.309407 15.004659 27.202429 15.008894 27.069776 14.936893 C 26.979914 14.886068 26.907169 14.809831 26.855819 14.716652 C 26.80447 14.610767 26.783074 14.500647 26.795912 14.386291 C 26.830145 14.132167 26.727445 13.971222 26.483535 13.903455 C 23.719217 13.149555 21.168855 11.71799 18.82817 9.612997 C 18.524352 9.33346 18.413095 9.003099 18.498677 8.621914 C 18.520073 8.524499 18.695517 8.469439 19.029289 8.456733 C 23.590843 8.244963 28.178071 8.177197 32.790974 8.253434 C 32.889394 8.257669 32.932185 8.206844 32.915068 8.105195 L 32.855161 7.804482 C 32.820927 7.639301 32.726787 7.541887 32.5599 7.508004 C 27.219545 6.512685 22.871949 6.381388 19.512831 7.114112 " stroke="#9e9432" stroke-width="2" stroke-opacity="0.996" stroke-miterlimit="4"/></g><g clip-path="url(#03d0c398d3)"><path stroke-linecap="butt" transform="matrix(0.912861, 0, 0, 0.922286, 0.000004, 55.630159)" fill="none" stroke-linejoin="miter" d="M 15.083931 9.05816 C 14.981232 9.079337 14.878533 9.083572 14.771555 9.079337 C 14.536202 9.075101 14.382154 9.185222 14.313688 9.409698 C 14.121127 10.053478 13.830146 10.663376 13.436466 11.243625 C 12.216914 13.056376 11.523694 15.127486 11.34825 17.456955 C 11.014478 22.035421 12.858783 25.32209 16.885445 27.329669 C 20.133305 28.951826 23.415398 30.612103 26.731725 32.318968 C 26.85154 32.378264 26.979914 32.412147 27.116846 32.407912 C 27.249499 32.403676 27.377873 32.369793 27.49341 32.302027 C 27.613226 32.238496 27.707366 32.145317 27.775832 32.030961 C 27.848578 31.916605 27.88709 31.793779 27.895648 31.658246 C 28.152396 27.588028 27.715925 23.873584 26.581955 20.510677 C 25.948644 18.651337 24.870303 16.936001 23.338374 15.356197 C 20.976294 12.920843 18.72975 10.849733 16.590185 9.147103 C 16.423299 9.007335 16.213622 8.926862 15.956874 8.909921 C 15.734359 8.884508 15.520402 8.914156 15.327841 8.994629 C 15.246538 9.028512 15.165235 9.049689 15.083931 9.05816 " stroke="#9e9432" stroke-width="2" stroke-opacity="0.996" stroke-miterlimit="4"/></g><path stroke-linecap="butt" transform="matrix(0.912861, 0, 0, 0.922286, 0.000004, 55.630159)" fill="none" stroke-linejoin="miter" d="M 21.031923 23.733815 C 21.772212 24.860431 22.756412 25.9574 23.988802 27.020485 C 24.326853 27.308492 24.403878 27.249196 24.219875 26.846833 C 23.321257 24.877373 22.294266 22.865559 21.138901 20.81139 C 19.786696 18.397213 18.464444 16.033861 17.172147 13.717098 C 16.076689 11.756108 15.794267 11.866229 16.329158 14.047459 C 16.692884 15.54679 17.35187 17.202831 18.297558 19.024052 C 19.17478 20.70127 20.086235 22.272603 21.031923 23.733815 " stroke="#9e9432" stroke-width="2" stroke-opacity="0.996" stroke-miterlimit="4"/><path fill="#46594f" d="M 24.992188 69.386719 C 24.929688 69.46875 24.832031 69.472656 24.710938 69.40625 C 24.628906 69.359375 24.5625 69.289062 24.515625 69.203125 C 24.46875 69.105469 24.449219 69.003906 24.460938 68.898438 C 24.492188 68.664062 24.398438 68.515625 24.175781 68.453125 C 21.652344 67.757812 19.324219 66.4375 17.1875 64.496094 C 16.910156 64.238281 16.808594 63.933594 16.886719 63.582031 C 16.90625 63.492188 17.066406 63.441406 17.371094 63.429688 C 21.535156 63.234375 25.722656 63.171875 29.933594 63.242188 C 30.023438 63.246094 30.0625 63.199219 30.046875 63.105469 L 29.992188 62.828125 C 29.960938 62.675781 29.875 62.585938 29.722656 62.554688 C 24.847656 61.636719 20.878906 61.515625 17.8125 62.191406 C 18.496094 61.539062 19.273438 61.234375 20.136719 61.285156 C 20.460938 61.300781 20.75 61.214844 21.007812 61.019531 C 21.214844 60.863281 21.445312 60.777344 21.695312 60.753906 C 25.246094 60.4375 27.632812 60.414062 28.859375 60.683594 C 31.011719 61.160156 33.3125 61.828125 35.761719 62.695312 C 35.898438 62.742188 35.996094 62.832031 36.054688 62.96875 C 36.113281 63.105469 36.113281 63.238281 36.054688 63.375 C 35.871094 63.8125 35.542969 64.304688 35.117188 64.523438 C 32.726562 65.75 30.257812 66.667969 27.707031 67.28125 C 27.53125 67.328125 27.375 67.410156 27.242188 67.535156 C 26.84375 67.90625 26.339844 68.011719 25.726562 67.851562 C 25.472656 67.789062 25.289062 67.878906 25.175781 68.117188 C 25.027344 68.4375 24.96875 68.863281 24.992188 69.386719 Z M 24.992188 69.386719 " fill-opacity="0.988" fill-rule="nonzero"/><path fill="#f4ce15" d="M 24.992188 69.386719 C 25.523438 70.058594 26.453125 70.320312 27.058594 70.746094 C 29.417969 72.414062 31.113281 73.707031 32.144531 74.625 C 46.09375 87.050781 44.527344 104.960938 36.855469 120.710938 C 35.601562 123.273438 34.847656 125.390625 34.710938 128.3125 C 34.691406 128.832031 34.535156 129.324219 34.246094 129.789062 C 34.179688 129.898438 34.089844 129.988281 33.984375 130.058594 C 33.875 130.128906 33.761719 130.175781 33.632812 130.195312 C 33.507812 130.214844 33.382812 130.207031 33.261719 130.171875 C 33.136719 130.136719 33.027344 130.078125 32.929688 129.992188 C 29.917969 127.460938 26.777344 125.652344 23.503906 124.566406 C 19.160156 123.121094 16.007812 120.917969 12.941406 117.605469 C 7.554688 111.785156 3.867188 105.265625 2.773438 97.261719 C 1.953125 91.25 2.589844 86.152344 4.679688 81.972656 C 6.707031 77.914062 8.121094 74.414062 8.917969 71.472656 C 9.15625 70.609375 9.320312 69.742188 9.417969 68.871094 C 9.785156 65.519531 11.695312 63.640625 15.152344 63.230469 C 15.3125 63.214844 15.425781 63.132812 15.492188 62.984375 L 15.589844 62.78125 C 15.601562 62.75 15.625 62.730469 15.65625 62.726562 L 17.8125 62.191406 C 20.878906 61.515625 24.847656 61.636719 29.722656 62.554688 C 29.875 62.585938 29.960938 62.675781 29.992188 62.828125 L 30.046875 63.105469 C 30.0625 63.199219 30.023438 63.246094 29.933594 63.242188 C 25.722656 63.171875 21.535156 63.234375 17.371094 63.429688 C 17.066406 63.441406 16.90625 63.492188 16.886719 63.582031 C 16.808594 63.933594 16.910156 64.238281 17.1875 64.496094 C 19.324219 66.4375 21.652344 67.757812 24.175781 68.453125 C 24.398438 68.515625 24.492188 68.664062 24.460938 68.898438 C 24.449219 69.003906 24.46875 69.105469 24.515625 69.203125 C 24.5625 69.289062 24.628906 69.359375 24.710938 69.40625 C 24.832031 69.472656 24.929688 69.46875 24.992188 69.386719 Z M 13.769531 63.984375 C 13.675781 64.003906 13.582031 64.007812 13.484375 64.003906 C 13.269531 64 13.128906 64.101562 13.066406 64.308594 C 12.890625 64.902344 12.625 65.464844 12.265625 66 C 11.152344 67.671875 10.519531 69.582031 10.359375 71.730469 C 10.054688 75.953125 11.738281 78.984375 15.414062 80.835938 C 18.378906 82.332031 21.375 83.863281 24.402344 85.4375 C 24.511719 85.492188 24.628906 85.523438 24.753906 85.519531 C 24.875 85.515625 24.992188 85.484375 25.097656 85.421875 C 25.207031 85.363281 25.292969 85.277344 25.355469 85.171875 C 25.421875 85.066406 25.457031 84.953125 25.464844 84.828125 C 25.699219 81.074219 25.300781 77.648438 24.265625 74.546875 C 23.6875 72.832031 22.703125 71.25 21.304688 69.792969 C 19.148438 67.546875 17.097656 65.636719 15.144531 64.066406 C 14.992188 63.9375 14.800781 63.863281 14.566406 63.847656 C 14.363281 63.824219 14.167969 63.851562 13.992188 63.925781 C 13.917969 63.957031 13.84375 63.976562 13.769531 63.984375 Z M 13.769531 63.984375 " fill-opacity="1" fill-rule="nonzero"/><path fill="#46594f" d="M 13.992188 63.925781 C 14.167969 63.851562 14.363281 63.824219 14.566406 63.847656 C 14.800781 63.863281 14.992188 63.9375 15.144531 64.066406 C 17.097656 65.636719 19.148438 67.546875 21.304688 69.792969 C 22.703125 71.25 23.6875 72.832031 24.265625 74.546875 C 25.300781 77.648438 25.699219 81.074219 25.464844 84.828125 C 25.457031 84.953125 25.421875 85.066406 25.355469 85.171875 C 25.292969 85.277344 25.207031 85.363281 25.097656 85.421875 C 24.992188 85.484375 24.875 85.515625 24.753906 85.519531 C 24.628906 85.523438 24.511719 85.492188 24.402344 85.4375 C 21.375 83.863281 18.378906 82.332031 15.414062 80.835938 C 11.738281 78.984375 10.054688 75.953125 10.359375 71.730469 C 10.519531 69.582031 11.152344 67.671875 12.265625 66 C 12.625 65.464844 12.890625 64.902344 13.066406 64.308594 C 13.128906 64.101562 13.269531 64 13.484375 64.003906 C 13.582031 64.007812 13.675781 64.003906 13.769531 63.984375 C 13.84375 63.976562 13.917969 63.957031 13.992188 63.925781 Z M 19.199219 77.519531 C 19.875 78.558594 20.773438 79.570312 21.898438 80.550781 C 22.207031 80.816406 22.277344 80.761719 22.109375 80.390625 C 21.289062 78.574219 20.351562 76.71875 19.296875 74.824219 C 18.0625 72.597656 16.855469 70.417969 15.675781 68.28125 C 14.675781 66.472656 14.417969 66.574219 14.90625 68.585938 C 15.238281 69.96875 15.839844 71.496094 16.703125 73.175781 C 17.503906 74.722656 18.335938 76.171875 19.199219 77.519531 Z M 19.199219 77.519531 " fill-opacity="0.988" fill-rule="nonzero"/><path fill="#f4ce15" d="M 16.703125 73.175781 C 15.839844 71.496094 15.238281 69.96875 14.90625 68.585938 C 14.417969 66.574219 14.675781 66.472656 15.675781 68.28125 C 16.855469 70.417969 18.0625 72.597656 19.296875 74.824219 C 20.351562 76.71875 21.289062 78.574219 22.109375 80.390625 C 22.277344 80.761719 22.207031 80.816406 21.898438 80.550781 C 20.773438 79.570312 19.875 78.558594 19.199219 77.519531 C 18.335938 76.171875 17.503906 74.722656 16.703125 73.175781 Z M 16.703125 73.175781 " fill-opacity="1" fill-rule="nonzero"/><g fill="#46594f" fill-opacity="1"><g transform="translate(51.752819, 100.381341)"><g><path d="M 2.40625 0 C 2.28125 0 2.179688 -0.00390625 2.109375 -0.015625 C 2.046875 -0.0234375 2 -0.0390625 1.96875 -0.0625 C 1.9375 -0.09375 1.914062 -0.132812 1.90625 -0.1875 C 1.90625 -0.25 1.90625 -0.332031 1.90625 -0.4375 L 1.90625 -12.53125 C 1.90625 -12.726562 1.941406 -12.90625 2.015625 -13.0625 C 2.085938 -13.21875 2.238281 -13.296875 2.46875 -13.296875 C 2.664062 -13.296875 2.789062 -13.210938 2.84375 -13.046875 C 2.894531 -12.890625 2.921875 -12.71875 2.921875 -12.53125 L 2.921875 -0.78125 L 13.1875 -0.78125 C 13.34375 -0.78125 13.460938 -0.738281 13.546875 -0.65625 C 13.628906 -0.570312 13.671875 -0.484375 13.671875 -0.390625 C 13.671875 -0.285156 13.628906 -0.191406 13.546875 -0.109375 C 13.460938 -0.0351562 13.34375 0 13.1875 0 Z M 2.40625 0 "/></g></g></g><g fill="#46594f" fill-opacity="1"><g transform="translate(65.42523, 100.381341)"><g><path d="M 3.015625 -0.75 C 3.015625 -0.644531 3.007812 -0.546875 3 -0.453125 C 2.988281 -0.367188 2.96875 -0.289062 2.9375 -0.21875 C 2.914062 -0.15625 2.867188 -0.101562 2.796875 -0.0625 C 2.734375 -0.0195312 2.644531 0 2.53125 0 C 2.3125 0 2.175781 -0.0664062 2.125 -0.203125 C 2.070312 -0.335938 2.046875 -0.519531 2.046875 -0.75 L 2.046875 -8.421875 C 2.046875 -8.617188 2.070312 -8.785156 2.125 -8.921875 C 2.1875 -9.066406 2.332031 -9.140625 2.5625 -9.140625 C 2.757812 -9.140625 2.882812 -9.066406 2.9375 -8.921875 C 2.988281 -8.785156 3.015625 -8.625 3.015625 -8.4375 Z M 1.90625 -11.84375 C 1.90625 -12.03125 1.960938 -12.179688 2.078125 -12.296875 C 2.191406 -12.421875 2.34375 -12.484375 2.53125 -12.484375 C 2.71875 -12.484375 2.875 -12.421875 3 -12.296875 C 3.125 -12.179688 3.1875 -12.03125 3.1875 -11.84375 C 3.1875 -11.65625 3.125 -11.503906 3 -11.390625 C 2.875 -11.285156 2.71875 -11.234375 2.53125 -11.234375 C 2.34375 -11.234375 2.191406 -11.285156 2.078125 -11.390625 C 1.960938 -11.503906 1.90625 -11.65625 1.90625 -11.84375 Z M 1.90625 -11.84375 "/></g></g></g><g fill="#46594f" fill-opacity="1"><g transform="translate(70.512084, 100.381341)"><g><path d="M 7.125 -8.96875 C 7.25 -8.96875 7.335938 -8.9375 7.390625 -8.875 C 7.453125 -8.8125 7.484375 -8.75 7.484375 -8.6875 C 7.484375 -8.613281 7.453125 -8.546875 7.390625 -8.484375 C 7.335938 -8.421875 7.25 -8.390625 7.125 -8.390625 L 3.171875 -8.390625 L 3.171875 -3.328125 C 3.171875 -2.742188 3.226562 -2.273438 3.34375 -1.921875 C 3.457031 -1.566406 3.613281 -1.285156 3.8125 -1.078125 C 4.019531 -0.878906 4.257812 -0.742188 4.53125 -0.671875 C 4.8125 -0.609375 5.109375 -0.578125 5.421875 -0.578125 C 5.804688 -0.578125 6.179688 -0.644531 6.546875 -0.78125 C 6.910156 -0.914062 7.332031 -1.113281 7.8125 -1.375 C 7.90625 -1.414062 7.992188 -1.4375 8.078125 -1.4375 C 8.179688 -1.4375 8.265625 -1.40625 8.328125 -1.34375 C 8.390625 -1.289062 8.421875 -1.222656 8.421875 -1.140625 C 8.421875 -0.972656 8.332031 -0.84375 8.15625 -0.75 C 7.820312 -0.570312 7.523438 -0.425781 7.265625 -0.3125 C 7.003906 -0.195312 6.765625 -0.109375 6.546875 -0.046875 C 6.328125 0.015625 6.113281 0.0546875 5.90625 0.078125 C 5.695312 0.109375 5.476562 0.125 5.25 0.125 C 4.820312 0.125 4.421875 0.0664062 4.046875 -0.046875 C 3.679688 -0.171875 3.359375 -0.363281 3.078125 -0.625 C 2.804688 -0.894531 2.59375 -1.25 2.4375 -1.6875 C 2.28125 -2.132812 2.203125 -2.679688 2.203125 -3.328125 L 2.203125 -8.390625 L 1.15625 -8.390625 C 1.039062 -8.390625 0.957031 -8.421875 0.90625 -8.484375 C 0.851562 -8.546875 0.828125 -8.613281 0.828125 -8.6875 C 0.828125 -8.75 0.851562 -8.8125 0.90625 -8.875 C 0.957031 -8.9375 1.039062 -8.96875 1.15625 -8.96875 L 2.203125 -8.96875 L 2.203125 -11.9375 C 2.203125 -12.195312 2.253906 -12.359375 2.359375 -12.421875 C 2.460938 -12.492188 2.570312 -12.53125 2.6875 -12.53125 C 2.820312 -12.53125 2.9375 -12.492188 3.03125 -12.421875 C 3.125 -12.359375 3.171875 -12.195312 3.171875 -11.9375 L 3.171875 -8.96875 Z M 7.125 -8.96875 "/></g></g></g><g fill="#46594f" fill-opacity="1"><g transform="translate(79.037937, 100.381341)"><g><path d="M 7.125 -8.96875 C 7.25 -8.96875 7.335938 -8.9375 7.390625 -8.875 C 7.453125 -8.8125 7.484375 -8.75 7.484375 -8.6875 C 7.484375 -8.613281 7.453125 -8.546875 7.390625 -8.484375 C 7.335938 -8.421875 7.25 -8.390625 7.125 -8.390625 L 3.171875 -8.390625 L 3.171875 -3.328125 C 3.171875 -2.742188 3.226562 -2.273438 3.34375 -1.921875 C 3.457031 -1.566406 3.613281 -1.285156 3.8125 -1.078125 C 4.019531 -0.878906 4.257812 -0.742188 4.53125 -0.671875 C 4.8125 -0.609375 5.109375 -0.578125 5.421875 -0.578125 C 5.804688 -0.578125 6.179688 -0.644531 6.546875 -0.78125 C 6.910156 -0.914062 7.332031 -1.113281 7.8125 -1.375 C 7.90625 -1.414062 7.992188 -1.4375 8.078125 -1.4375 C 8.179688 -1.4375 8.265625 -1.40625 8.328125 -1.34375 C 8.390625 -1.289062 8.421875 -1.222656 8.421875 -1.140625 C 8.421875 -0.972656 8.332031 -0.84375 8.15625 -0.75 C 7.820312 -0.570312 7.523438 -0.425781 7.265625 -0.3125 C 7.003906 -0.195312 6.765625 -0.109375 6.546875 -0.046875 C 6.328125 0.015625 6.113281 0.0546875 5.90625 0.078125 C 5.695312 0.109375 5.476562 0.125 5.25 0.125 C 4.820312 0.125 4.421875 0.0664062 4.046875 -0.046875 C 3.679688 -0.171875 3.359375 -0.363281 3.078125 -0.625 C 2.804688 -0.894531 2.59375 -1.25 2.4375 -1.6875 C 2.28125 -2.132812 2.203125 -2.679688 2.203125 -3.328125 L 2.203125 -8.390625 L 1.15625 -8.390625 C 1.039062 -8.390625 0.957031 -8.421875 0.90625 -8.484375 C 0.851562 -8.546875 0.828125 -8.613281 0.828125 -8.6875 C 0.828125 -8.75 0.851562 -8.8125 0.90625 -8.875 C 0.957031 -8.9375 1.039062 -8.96875 1.15625 -8.96875 L 2.203125 -8.96875 L 2.203125 -11.9375 C 2.203125 -12.195312 2.253906 -12.359375 2.359375 -12.421875 C 2.460938 -12.492188 2.570312 -12.53125 2.6875 -12.53125 C 2.820312 -12.53125 2.9375 -12.492188 3.03125 -12.421875 C 3.125 -12.359375 3.171875 -12.195312 3.171875 -11.9375 L 3.171875 -8.96875 Z M 7.125 -8.96875 "/></g></g></g><g fill="#46594f" fill-opacity="1"><g transform="translate(87.56379, 100.381341)"><g><path d="M 2.859375 -0.828125 C 2.859375 -0.597656 2.832031 -0.398438 2.78125 -0.234375 C 2.726562 -0.078125 2.601562 0 2.40625 0 C 2.28125 0 2.1875 -0.0195312 2.125 -0.0625 C 2.0625 -0.101562 2.015625 -0.160156 1.984375 -0.234375 C 1.953125 -0.316406 1.929688 -0.40625 1.921875 -0.5 C 1.910156 -0.59375 1.90625 -0.695312 1.90625 -0.8125 L 1.90625 -12.4375 C 1.90625 -12.5625 1.910156 -12.675781 1.921875 -12.78125 C 1.929688 -12.882812 1.953125 -12.972656 1.984375 -13.046875 C 2.023438 -13.117188 2.078125 -13.175781 2.140625 -13.21875 C 2.210938 -13.269531 2.304688 -13.296875 2.421875 -13.296875 C 2.515625 -13.296875 2.59375 -13.269531 2.65625 -13.21875 C 2.71875 -13.175781 2.765625 -13.113281 2.796875 -13.03125 C 2.828125 -12.957031 2.84375 -12.867188 2.84375 -12.765625 C 2.851562 -12.671875 2.859375 -12.570312 2.859375 -12.46875 Z M 2.859375 -0.828125 "/></g></g></g><g fill="#46594f" fill-opacity="1"><g transform="translate(92.328238, 100.381341)"><g><path d="M 7.15625 -8.6875 C 6.414062 -8.6875 5.757812 -8.617188 5.1875 -8.484375 C 4.613281 -8.359375 4.125 -8.15625 3.71875 -7.875 C 3.320312 -7.59375 3.007812 -7.226562 2.78125 -6.78125 C 2.5625 -6.332031 2.4375 -5.785156 2.40625 -5.140625 L 11.421875 -5.140625 L 11.421875 -5.796875 C 11.421875 -6.191406 11.34375 -6.5625 11.1875 -6.90625 C 11.039062 -7.257812 10.800781 -7.566406 10.46875 -7.828125 C 10.132812 -8.097656 9.695312 -8.304688 9.15625 -8.453125 C 8.613281 -8.609375 7.945312 -8.6875 7.15625 -8.6875 Z M 6.546875 -0.578125 C 7.296875 -0.578125 7.953125 -0.625 8.515625 -0.71875 C 9.085938 -0.820312 9.578125 -0.941406 9.984375 -1.078125 C 10.390625 -1.210938 10.71875 -1.347656 10.96875 -1.484375 C 11.226562 -1.628906 11.429688 -1.75 11.578125 -1.84375 C 11.628906 -1.863281 11.660156 -1.875 11.671875 -1.875 C 11.765625 -1.875 11.847656 -1.832031 11.921875 -1.75 C 11.992188 -1.664062 12.03125 -1.578125 12.03125 -1.484375 C 12.03125 -1.390625 11.992188 -1.316406 11.921875 -1.265625 C 11.847656 -1.191406 11.691406 -1.078125 11.453125 -0.921875 C 11.222656 -0.773438 10.890625 -0.625 10.453125 -0.46875 C 10.015625 -0.3125 9.472656 -0.171875 8.828125 -0.046875 C 8.179688 0.0664062 7.414062 0.125 6.53125 0.125 C 5.601562 0.125 4.816406 0.0078125 4.171875 -0.21875 C 3.535156 -0.457031 3.015625 -0.78125 2.609375 -1.1875 C 2.203125 -1.601562 1.90625 -2.101562 1.71875 -2.6875 C 1.53125 -3.269531 1.4375 -3.90625 1.4375 -4.59375 C 1.4375 -5.519531 1.582031 -6.289062 1.875 -6.90625 C 2.175781 -7.519531 2.582031 -8.007812 3.09375 -8.375 C 3.613281 -8.75 4.21875 -9.007812 4.90625 -9.15625 C 5.601562 -9.3125 6.351562 -9.390625 7.15625 -9.390625 C 8.8125 -9.390625 10.050781 -9.070312 10.875 -8.4375 C 11.707031 -7.800781 12.125 -6.894531 12.125 -5.71875 C 12.125 -5.601562 12.113281 -5.476562 12.09375 -5.34375 C 12.082031 -5.207031 12.0625 -5.078125 12.03125 -4.953125 C 12 -4.835938 11.960938 -4.738281 11.921875 -4.65625 C 11.890625 -4.570312 11.859375 -4.53125 11.828125 -4.53125 L 8.328125 -4.53125 L 2.40625 -4.640625 C 2.414062 -3.898438 2.507812 -3.273438 2.6875 -2.765625 C 2.875 -2.253906 3.140625 -1.835938 3.484375 -1.515625 C 3.828125 -1.191406 4.253906 -0.953125 4.765625 -0.796875 C 5.273438 -0.648438 5.867188 -0.578125 6.546875 -0.578125 Z M 6.546875 -0.578125 "/></g></g></g><g fill="#46594f" fill-opacity="1"><g transform="translate(105.821535, 100.381341)"><g/></g></g><g fill="#46594f" fill-opacity="1"><g transform="translate(111.314381, 100.381341)"><g><path d="M 2.40625 0 C 2.28125 0 2.179688 -0.00390625 2.109375 -0.015625 C 2.046875 -0.0234375 2 -0.0390625 1.96875 -0.0625 C 1.9375 -0.09375 1.914062 -0.132812 1.90625 -0.1875 C 1.90625 -0.25 1.90625 -0.332031 1.90625 -0.4375 L 1.90625 -12.53125 C 1.90625 -12.726562 1.941406 -12.90625 2.015625 -13.0625 C 2.085938 -13.21875 2.238281 -13.296875 2.46875 -13.296875 C 2.664062 -13.296875 2.789062 -13.210938 2.84375 -13.046875 C 2.894531 -12.890625 2.921875 -12.71875 2.921875 -12.53125 L 2.921875 -0.78125 L 13.1875 -0.78125 C 13.34375 -0.78125 13.460938 -0.738281 13.546875 -0.65625 C 13.628906 -0.570312 13.671875 -0.484375 13.671875 -0.390625 C 13.671875 -0.285156 13.628906 -0.191406 13.546875 -0.109375 C 13.460938 -0.0351562 13.34375 0 13.1875 0 Z M 2.40625 0 "/></g></g></g><g fill="#46594f" fill-opacity="1"><g transform="translate(124.986793, 100.381341)"><g><path d="M 7.15625 -8.6875 C 6.414062 -8.6875 5.757812 -8.617188 5.1875 -8.484375 C 4.613281 -8.359375 4.125 -8.15625 3.71875 -7.875 C 3.320312 -7.59375 3.007812 -7.226562 2.78125 -6.78125 C 2.5625 -6.332031 2.4375 -5.785156 2.40625 -5.140625 L 11.421875 -5.140625 L 11.421875 -5.796875 C 11.421875 -6.191406 11.34375 -6.5625 11.1875 -6.90625 C 11.039062 -7.257812 10.800781 -7.566406 10.46875 -7.828125 C 10.132812 -8.097656 9.695312 -8.304688 9.15625 -8.453125 C 8.613281 -8.609375 7.945312 -8.6875 7.15625 -8.6875 Z M 6.546875 -0.578125 C 7.296875 -0.578125 7.953125 -0.625 8.515625 -0.71875 C 9.085938 -0.820312 9.578125 -0.941406 9.984375 -1.078125 C 10.390625 -1.210938 10.71875 -1.347656 10.96875 -1.484375 C 11.226562 -1.628906 11.429688 -1.75 11.578125 -1.84375 C 11.628906 -1.863281 11.660156 -1.875 11.671875 -1.875 C 11.765625 -1.875 11.847656 -1.832031 11.921875 -1.75 C 11.992188 -1.664062 12.03125 -1.578125 12.03125 -1.484375 C 12.03125 -1.390625 11.992188 -1.316406 11.921875 -1.265625 C 11.847656 -1.191406 11.691406 -1.078125 11.453125 -0.921875 C 11.222656 -0.773438 10.890625 -0.625 10.453125 -0.46875 C 10.015625 -0.3125 9.472656 -0.171875 8.828125 -0.046875 C 8.179688 0.0664062 7.414062 0.125 6.53125 0.125 C 5.601562 0.125 4.816406 0.0078125 4.171875 -0.21875 C 3.535156 -0.457031 3.015625 -0.78125 2.609375 -1.1875 C 2.203125 -1.601562 1.90625 -2.101562 1.71875 -2.6875 C 1.53125 -3.269531 1.4375 -3.90625 1.4375 -4.59375 C 1.4375 -5.519531 1.582031 -6.289062 1.875 -6.90625 C 2.175781 -7.519531 2.582031 -8.007812 3.09375 -8.375 C 3.613281 -8.75 4.21875 -9.007812 4.90625 -9.15625 C 5.601562 -9.3125 6.351562 -9.390625 7.15625 -9.390625 C 8.8125 -9.390625 10.050781 -9.070312 10.875 -8.4375 C 11.707031 -7.800781 12.125 -6.894531 12.125 -5.71875 C 12.125 -5.601562 12.113281 -5.476562 12.09375 -5.34375 C 12.082031 -5.207031 12.0625 -5.078125 12.03125 -4.953125 C 12 -4.835938 11.960938 -4.738281 11.921875 -4.65625 C 11.890625 -4.570312 11.859375 -4.53125 11.828125 -4.53125 L 8.328125 -4.53125 L 2.40625 -4.640625 C 2.414062 -3.898438 2.507812 -3.273438 2.6875 -2.765625 C 2.875 -2.253906 3.140625 -1.835938 3.484375 -1.515625 C 3.828125 -1.191406 4.253906 -0.953125 4.765625 -0.796875 C 5.273438 -0.648438 5.867188 -0.578125 6.546875 -0.578125 Z M 6.546875 -0.578125 "/></g></g></g><g fill="#46594f" fill-opacity="1"><g transform="translate(138.48009, 100.381341)"><g><path d="M 16.75 -5.84375 C 16.75 -6.382812 16.703125 -6.835938 16.609375 -7.203125 C 16.523438 -7.578125 16.390625 -7.875 16.203125 -8.09375 C 16.015625 -8.3125 15.78125 -8.460938 15.5 -8.546875 C 15.21875 -8.640625 14.882812 -8.6875 14.5 -8.6875 C 13.488281 -8.6875 12.644531 -8.476562 11.96875 -8.0625 C 11.289062 -7.644531 10.734375 -7.078125 10.296875 -6.359375 L 10.296875 -0.625 C 10.296875 -0.476562 10.28125 -0.363281 10.25 -0.28125 C 10.21875 -0.207031 10.175781 -0.144531 10.125 -0.09375 C 10.082031 -0.0507812 10.035156 -0.0234375 9.984375 -0.015625 C 9.929688 -0.00390625 9.882812 0 9.84375 0 C 9.78125 0 9.71875 -0.00390625 9.65625 -0.015625 C 9.601562 -0.0234375 9.550781 -0.046875 9.5 -0.078125 C 9.457031 -0.117188 9.421875 -0.179688 9.390625 -0.265625 C 9.359375 -0.347656 9.34375 -0.46875 9.34375 -0.625 L 9.34375 -6.359375 C 9.34375 -7.078125 9.171875 -7.644531 8.828125 -8.0625 C 8.492188 -8.476562 7.953125 -8.6875 7.203125 -8.6875 C 6.640625 -8.6875 6.113281 -8.617188 5.625 -8.484375 C 5.132812 -8.359375 4.703125 -8.1875 4.328125 -7.96875 C 3.953125 -7.757812 3.632812 -7.507812 3.375 -7.21875 C 3.125 -6.925781 2.953125 -6.617188 2.859375 -6.296875 L 2.859375 -0.625 C 2.859375 -0.34375 2.8125 -0.164062 2.71875 -0.09375 C 2.625 -0.03125 2.53125 0 2.4375 0 C 2.382812 0 2.320312 -0.00390625 2.25 -0.015625 C 2.1875 -0.0234375 2.128906 -0.046875 2.078125 -0.078125 C 2.023438 -0.117188 1.984375 -0.179688 1.953125 -0.265625 C 1.921875 -0.347656 1.90625 -0.46875 1.90625 -0.625 L 1.90625 -8.5625 C 1.90625 -8.8125 1.953125 -8.96875 2.046875 -9.03125 C 2.148438 -9.101562 2.265625 -9.140625 2.390625 -9.140625 C 2.523438 -9.140625 2.632812 -9.101562 2.71875 -9.03125 C 2.800781 -8.96875 2.84375 -8.8125 2.84375 -8.5625 L 2.84375 -7.09375 C 2.96875 -7.445312 3.164062 -7.765625 3.4375 -8.046875 C 3.71875 -8.335938 4.046875 -8.582031 4.421875 -8.78125 C 4.796875 -8.976562 5.21875 -9.128906 5.6875 -9.234375 C 6.164062 -9.335938 6.660156 -9.390625 7.171875 -9.390625 C 7.773438 -9.390625 8.257812 -9.304688 8.625 -9.140625 C 9 -8.972656 9.289062 -8.769531 9.5 -8.53125 C 9.707031 -8.300781 9.851562 -8.054688 9.9375 -7.796875 C 10.019531 -7.546875 10.082031 -7.332031 10.125 -7.15625 C 10.269531 -7.394531 10.460938 -7.644531 10.703125 -7.90625 C 10.941406 -8.175781 11.238281 -8.421875 11.59375 -8.640625 C 11.945312 -8.859375 12.363281 -9.035156 12.84375 -9.171875 C 13.320312 -9.316406 13.867188 -9.390625 14.484375 -9.390625 C 15.578125 -9.390625 16.382812 -9.109375 16.90625 -8.546875 C 17.4375 -7.984375 17.703125 -7.082031 17.703125 -5.84375 L 17.703125 -0.625 C 17.703125 -0.476562 17.6875 -0.363281 17.65625 -0.28125 C 17.625 -0.207031 17.585938 -0.144531 17.546875 -0.09375 C 17.503906 -0.0507812 17.453125 -0.0234375 17.390625 -0.015625 C 17.335938 -0.00390625 17.285156 0 17.234375 0 C 17.171875 0 17.113281 -0.00390625 17.0625 -0.015625 C 17.007812 -0.0234375 16.957031 -0.046875 16.90625 -0.078125 C 16.851562 -0.117188 16.8125 -0.179688 16.78125 -0.265625 C 16.757812 -0.347656 16.75 -0.46875 16.75 -0.625 Z M 16.75 -5.84375 "/></g></g></g><g fill="#46594f" fill-opacity="1"><g transform="translate(157.943873, 100.381341)"><g><path d="M 7.40625 0.125 C 6.300781 0.125 5.367188 0.015625 4.609375 -0.203125 C 3.859375 -0.421875 3.25 -0.734375 2.78125 -1.140625 C 2.320312 -1.546875 1.988281 -2.039062 1.78125 -2.625 C 1.570312 -3.207031 1.46875 -3.863281 1.46875 -4.59375 C 1.46875 -5.4375 1.582031 -6.160156 1.8125 -6.765625 C 2.050781 -7.367188 2.414062 -7.863281 2.90625 -8.25 C 3.394531 -8.632812 4.007812 -8.921875 4.75 -9.109375 C 5.5 -9.296875 6.382812 -9.390625 7.40625 -9.390625 C 8.425781 -9.390625 9.304688 -9.296875 10.046875 -9.109375 C 10.785156 -8.921875 11.398438 -8.632812 11.890625 -8.25 C 12.378906 -7.863281 12.742188 -7.367188 12.984375 -6.765625 C 13.222656 -6.160156 13.34375 -5.4375 13.34375 -4.59375 C 13.34375 -3.863281 13.238281 -3.207031 13.03125 -2.625 C 12.820312 -2.039062 12.484375 -1.546875 12.015625 -1.140625 C 11.546875 -0.734375 10.929688 -0.421875 10.171875 -0.203125 C 9.421875 0.015625 8.5 0.125 7.40625 0.125 Z M 7.40625 -0.578125 C 8.125 -0.578125 8.742188 -0.628906 9.265625 -0.734375 C 9.796875 -0.847656 10.242188 -1 10.609375 -1.1875 C 10.984375 -1.382812 11.285156 -1.609375 11.515625 -1.859375 C 11.742188 -2.117188 11.921875 -2.394531 12.046875 -2.6875 C 12.179688 -2.988281 12.269531 -3.300781 12.3125 -3.625 C 12.351562 -3.945312 12.375 -4.269531 12.375 -4.59375 C 12.375 -5.332031 12.28125 -5.960938 12.09375 -6.484375 C 11.90625 -7.003906 11.609375 -7.425781 11.203125 -7.75 C 10.796875 -8.070312 10.273438 -8.304688 9.640625 -8.453125 C 9.015625 -8.609375 8.269531 -8.6875 7.40625 -8.6875 C 6.53125 -8.6875 5.78125 -8.609375 5.15625 -8.453125 C 4.53125 -8.304688 4.015625 -8.070312 3.609375 -7.75 C 3.203125 -7.425781 2.898438 -7.003906 2.703125 -6.484375 C 2.515625 -5.960938 2.421875 -5.332031 2.421875 -4.59375 C 2.421875 -4.269531 2.441406 -3.945312 2.484375 -3.625 C 2.535156 -3.300781 2.625 -2.988281 2.75 -2.6875 C 2.882812 -2.394531 3.0625 -2.117188 3.28125 -1.859375 C 3.507812 -1.609375 3.804688 -1.382812 4.171875 -1.1875 C 4.546875 -1 4.992188 -0.847656 5.515625 -0.734375 C 6.046875 -0.628906 6.675781 -0.578125 7.40625 -0.578125 Z M 7.40625 -0.578125 "/></g></g></g><g fill="#46594f" fill-opacity="1"><g transform="translate(172.750676, 100.381341)"><g><path d="M 12.484375 -0.859375 C 12.484375 -0.753906 12.472656 -0.648438 12.453125 -0.546875 C 12.429688 -0.441406 12.40625 -0.347656 12.375 -0.265625 C 12.34375 -0.191406 12.289062 -0.128906 12.21875 -0.078125 C 12.15625 -0.0234375 12.078125 0 11.984375 0 C 11.867188 0 11.78125 -0.0234375 11.71875 -0.078125 C 11.65625 -0.128906 11.609375 -0.191406 11.578125 -0.265625 C 11.546875 -0.347656 11.523438 -0.441406 11.515625 -0.546875 C 11.515625 -0.648438 11.515625 -0.753906 11.515625 -0.859375 L 11.515625 -4.984375 C 11.515625 -5.609375 11.46875 -6.148438 11.375 -6.609375 C 11.289062 -7.078125 11.113281 -7.460938 10.84375 -7.765625 C 10.582031 -8.078125 10.210938 -8.304688 9.734375 -8.453125 C 9.265625 -8.609375 8.644531 -8.6875 7.875 -8.6875 C 7.40625 -8.6875 6.90625 -8.644531 6.375 -8.5625 C 5.851562 -8.488281 5.351562 -8.359375 4.875 -8.171875 C 4.40625 -7.984375 3.984375 -7.734375 3.609375 -7.421875 C 3.242188 -7.117188 2.992188 -6.726562 2.859375 -6.25 L 2.859375 -0.859375 C 2.859375 -0.753906 2.851562 -0.648438 2.84375 -0.546875 C 2.832031 -0.441406 2.8125 -0.347656 2.78125 -0.265625 C 2.75 -0.191406 2.703125 -0.128906 2.640625 -0.078125 C 2.585938 -0.0234375 2.507812 0 2.40625 0 C 2.300781 0 2.210938 -0.0234375 2.140625 -0.078125 C 2.078125 -0.128906 2.023438 -0.191406 1.984375 -0.265625 C 1.953125 -0.347656 1.929688 -0.441406 1.921875 -0.546875 C 1.910156 -0.648438 1.90625 -0.753906 1.90625 -0.859375 L 1.90625 -8.59375 C 1.90625 -8.726562 1.929688 -8.851562 1.984375 -8.96875 C 2.035156 -9.082031 2.175781 -9.140625 2.40625 -9.140625 C 2.601562 -9.140625 2.726562 -9.085938 2.78125 -8.984375 C 2.832031 -8.878906 2.859375 -8.75 2.859375 -8.59375 L 2.859375 -7.09375 C 3.078125 -7.601562 3.382812 -8.007812 3.78125 -8.3125 C 4.175781 -8.625 4.609375 -8.851562 5.078125 -9 C 5.554688 -9.15625 6.039062 -9.257812 6.53125 -9.3125 C 7.019531 -9.363281 7.46875 -9.390625 7.875 -9.390625 C 8.738281 -9.390625 9.460938 -9.3125 10.046875 -9.15625 C 10.628906 -9.007812 11.101562 -8.765625 11.46875 -8.421875 C 11.832031 -8.085938 12.09375 -7.640625 12.25 -7.078125 C 12.40625 -6.515625 12.484375 -5.816406 12.484375 -4.984375 Z M 12.484375 -0.859375 "/></g></g></g></svg>