<svg xmlns="http://www.w3.org/2000/svg" xmlns:xlink="http://www.w3.org/1999/xlink" width="500" zoomAndPan="magnify" viewBox="0 0 375 374.999991" height="500" preserveAspectRatio="xMidYMid meet" version="1.0"><defs><clipPath id="6e8a2281c3"><path d="M 0 1 L 375 1 L 375 374.71875 L 0 374.71875 Z M 0 1 " clip-rule="nonzero"/></clipPath></defs><g clip-path="url(#6e8a2281c3)"><path fill="#000000" d="M 367.085938 250.742188 C 363.164062 250.742188 359.980469 247.554688 359.980469 243.628906 L 359.980469 25.464844 L 239.3125 146.1875 C 236.535156 148.960938 232.035156 148.960938 229.261719 146.1875 C 226.484375 143.410156 226.484375 138.90625 229.261719 136.128906 L 362.0625 3.261719 C 364.09375 1.226562 367.148438 0.617188 369.808594 1.71875 C 372.460938 2.820312 374.195312 5.414062 374.195312 8.289062 L 374.195312 243.628906 C 374.195312 247.554688 371.015625 250.742188 367.085938 250.742188 Z M 7.949219 374.71875 C 4.027344 374.71875 0.84375 371.535156 0.84375 367.605469 L 0.84375 119.652344 C 0.84375 116.773438 2.574219 114.179688 5.230469 113.078125 C 7.886719 111.976562 10.945312 112.585938 12.976562 114.621094 L 136.894531 238.601562 C 139.667969 241.375 139.667969 245.882812 136.894531 248.65625 C 134.117188 251.4375 129.617188 251.4375 126.839844 248.65625 L 15.058594 136.820312 L 15.058594 367.605469 C 15.058594 371.535156 11.875 374.71875 7.949219 374.71875 Z M 367.085938 374.71875 C 365.269531 374.71875 363.449219 374.023438 362.0625 372.636719 L 2.925781 13.320312 C 0.148438 10.542969 0.148438 6.039062 2.925781 3.261719 C 5.703125 0.484375 10.199219 0.484375 12.976562 3.261719 L 372.113281 362.578125 C 374.890625 365.355469 374.890625 369.859375 372.113281 372.636719 C 370.722656 374.023438 368.902344 374.71875 367.085938 374.71875 " fill-opacity="1" fill-rule="nonzero"/></g></svg>