<svg xmlns="http://www.w3.org/2000/svg" xmlns:xlink="http://www.w3.org/1999/xlink" width="500" zoomAndPan="magnify" viewBox="0 0 375 374.999991" height="500" preserveAspectRatio="xMidYMid meet" version="1.0"><defs><clipPath id="68ea5cc4d7"><path d="M 32.453125 6.230469 L 337.417969 6.230469 L 337.417969 298 L 32.453125 298 Z M 32.453125 6.230469 " clip-rule="nonzero"/></clipPath><clipPath id="a5c215cb42"><path d="M 147.582031 281 L 222.3125 281 L 222.3125 374.976562 L 147.582031 374.976562 Z M 147.582031 281 " clip-rule="nonzero"/></clipPath></defs><g clip-path="url(#68ea5cc4d7)"><path fill="#f8fafc" d="M 315.351562 151.226562 C 268.851562 97.167969 211.078125 68.003906 184.933594 6.230469 C 158.792969 68.003906 101.019531 97.167969 54.519531 151.226562 C 22.8125 188.082031 25.351562 243.160156 61.636719 275.515625 C 77.410156 289.574219 96.832031 296.921875 116.410156 297.753906 C 74.8125 285.292969 57.765625 246.253906 60.519531 213.570312 C 62.582031 189.078125 77.019531 173.863281 77.019531 173.863281 C 61.808594 211.765625 73.152344 251.214844 110.539062 269.480469 C 150.230469 288.875 184.933594 269.480469 184.933594 269.480469 C 184.933594 269.480469 219.640625 288.875 259.332031 269.480469 C 296.71875 251.214844 308.0625 211.765625 292.851562 173.863281 C 292.851562 173.863281 307.289062 189.078125 309.351562 213.570312 C 312.105469 246.253906 295.058594 285.292969 253.460938 297.753906 C 273.039062 296.921875 292.460938 289.574219 308.230469 275.515625 C 344.519531 243.160156 347.058594 188.082031 315.351562 151.226562 " fill-opacity="1" fill-rule="nonzero"/></g><g clip-path="url(#a5c215cb42)"><path fill="#f8fafc" d="M 184.933594 281.125 C 184.933594 281.125 180.667969 325.988281 147.667969 355.894531 L 184.933594 374.976562 L 222.203125 355.894531 C 189.203125 325.988281 184.933594 281.125 184.933594 281.125 " fill-opacity="1" fill-rule="nonzero"/></g><path fill="#020617" d="M 193.511719 158.9375 L 240.492188 205.929688 C 240.546875 205.988281 240.609375 206.003906 240.6875 205.976562 C 240.761719 205.945312 240.796875 205.890625 240.796875 205.808594 L 240.796875 127.824219 C 240.796875 127.582031 240.882812 127.371094 241.054688 127.199219 L 251.773438 116.425781 C 252.144531 116.054688 252.355469 116.132812 252.398438 116.65625 C 252.414062 116.84375 252.390625 117.035156 252.332031 117.230469 C 252.285156 117.375 252.261719 117.527344 252.261719 117.679688 L 252.269531 233.21875 C 252.269531 233.707031 252.097656 233.777344 251.75 233.433594 L 141.492188 123.125 C 141.195312 122.832031 141.046875 122.472656 141.046875 122.050781 L 141.011719 107.167969 C 141.011719 106.667969 141.183594 106.59375 141.535156 106.945312 L 184.792969 150.230469 C 184.996094 150.433594 185.199219 150.433594 185.402344 150.222656 L 228.773438 106.808594 C 228.863281 106.71875 228.964844 106.699219 229.078125 106.746094 C 229.195312 106.796875 229.253906 106.882812 229.253906 107.003906 L 229.238281 177.695312 C 229.238281 177.8125 229.179688 177.894531 229.070312 177.941406 C 228.960938 177.984375 228.863281 177.964844 228.78125 177.878906 L 209.84375 158.9375 C 209.671875 158.761719 209.671875 158.589844 209.84375 158.417969 L 217.246094 151.046875 C 217.566406 150.726562 217.726562 150.335938 217.726562 149.878906 L 217.710938 135.210938 C 217.707031 134.519531 217.460938 134.417969 216.972656 134.90625 L 193.511719 158.371094 C 193.324219 158.558594 193.324219 158.746094 193.511719 158.9375 Z M 193.511719 158.9375 " fill-opacity="1" fill-rule="nonzero"/><path fill="#020617" d="M 129.460938 144.28125 L 129.460938 222.339844 C 129.460938 222.40625 129.4375 222.460938 129.390625 222.507812 L 118.390625 233.554688 C 118.316406 233.628906 118.230469 233.648438 118.132812 233.605469 C 118.035156 233.566406 117.984375 233.492188 117.984375 233.386719 L 117.976562 116.574219 C 117.976562 116.464844 118.027344 116.394531 118.125 116.351562 C 118.222656 116.3125 118.308594 116.328125 118.382812 116.40625 L 229.125 227.214844 C 229.167969 227.261719 229.191406 227.316406 229.191406 227.382812 L 229.238281 242.96875 C 229.238281 243.074219 229.191406 243.148438 229.09375 243.1875 C 228.996094 243.226562 228.910156 243.210938 228.832031 243.136719 L 185.289062 199.558594 C 185.175781 199.445312 185.0625 199.445312 184.953125 199.558594 L 141.4375 243.113281 C 141.363281 243.1875 141.277344 243.207031 141.179688 243.164062 C 141.082031 243.125 141.03125 243.050781 141.03125 242.945312 L 141.03125 172.210938 C 141.03125 172.105469 141.082031 172.03125 141.179688 171.992188 C 141.277344 171.949219 141.363281 171.96875 141.4375 172.042969 L 160.457031 191.128906 C 160.570312 191.242188 160.570312 191.355469 160.457031 191.464844 L 152.574219 199.339844 C 152.527344 199.386719 152.507812 199.441406 152.507812 199.507812 L 152.484375 215.214844 C 152.484375 215.320312 152.53125 215.394531 152.628906 215.433594 C 152.726562 215.472656 152.8125 215.457031 152.886719 215.382812 L 176.835938 191.441406 C 176.949219 191.332031 176.949219 191.21875 176.835938 191.105469 L 129.863281 144.113281 C 129.789062 144.039062 129.703125 144.019531 129.605469 144.0625 C 129.507812 144.101562 129.460938 144.175781 129.460938 144.28125 Z M 129.460938 144.28125 " fill-opacity="1" fill-rule="nonzero"/></svg>