<svg xmlns="http://www.w3.org/2000/svg" xmlns:xlink="http://www.w3.org/1999/xlink" width="500" zoomAndPan="magnify" viewBox="0 0 375 374.999991" height="500" preserveAspectRatio="xMidYMid meet" version="1.0"><defs><clipPath id="04cfa02b99"><path d="M 0 1 L 375 1 L 375 374.71875 L 0 374.71875 Z M 0 1 " clip-rule="nonzero"/></clipPath></defs><g clip-path="url(#04cfa02b99)"><path fill="#f9fafb" d="M 367.085938 250.617188 C 363.164062 250.617188 359.980469 247.429688 359.980469 243.507812 L 359.980469 25.449219 L 239.3125 146.113281 C 236.535156 148.886719 232.035156 148.886719 229.261719 146.113281 C 226.484375 143.335938 226.484375 138.835938 229.261719 136.058594 L 362.0625 3.261719 C 364.09375 1.226562 367.148438 0.617188 369.808594 1.71875 C 372.460938 2.820312 374.195312 5.410156 374.195312 8.285156 L 374.195312 243.507812 C 374.195312 247.429688 371.015625 250.617188 367.085938 250.617188 Z M 7.949219 374.53125 C 4.027344 374.53125 0.84375 371.351562 0.84375 367.421875 L 0.84375 119.589844 C 0.84375 116.714844 2.574219 114.121094 5.230469 113.023438 C 7.886719 111.921875 10.945312 112.53125 12.976562 114.5625 L 136.894531 238.480469 C 139.667969 241.253906 139.667969 245.757812 136.894531 248.53125 C 134.117188 251.308594 129.617188 251.308594 126.839844 248.53125 L 15.058594 136.75 L 15.058594 367.421875 C 15.058594 371.351562 11.875 374.53125 7.949219 374.53125 Z M 367.085938 374.53125 C 365.269531 374.53125 363.449219 373.835938 362.0625 372.449219 L 2.925781 13.3125 C 0.148438 10.539062 0.148438 6.035156 2.925781 3.261719 C 5.703125 0.484375 10.199219 0.484375 12.976562 3.261719 L 372.113281 362.398438 C 374.890625 365.171875 374.890625 369.671875 372.113281 372.449219 C 370.722656 373.835938 368.902344 374.53125 367.085938 374.53125 " fill-opacity="1" fill-rule="nonzero"/></g></svg>