<svg xmlns="http://www.w3.org/2000/svg" xmlns:xlink="http://www.w3.org/1999/xlink" width="500" zoomAndPan="magnify" viewBox="0 0 375 374.999991" height="500" preserveAspectRatio="xMidYMid meet" version="1.0"><defs><g/><clipPath id="35120a3f45"><path d="M 10 10 L 365 10 L 365 365.335938 L 10 365.335938 Z M 10 10 " clip-rule="nonzero"/></clipPath></defs><g clip-path="url(#35120a3f45)"><path fill="#f9fafb" d="M 358.085938 247.449219 C 354.359375 247.449219 351.335938 244.425781 351.335938 240.695312 L 351.335938 33.566406 L 236.714844 148.183594 C 234.074219 150.816406 229.800781 150.816406 227.164062 148.183594 C 224.53125 145.546875 224.53125 141.273438 227.164062 138.632812 L 353.3125 12.488281 C 355.242188 10.554688 358.148438 9.976562 360.671875 11.023438 C 363.195312 12.066406 364.839844 14.53125 364.839844 17.261719 L 364.839844 240.695312 C 364.839844 244.425781 361.816406 247.449219 358.085938 247.449219 Z M 16.941406 365.160156 C 13.214844 365.160156 10.1875 362.136719 10.1875 358.40625 L 10.1875 122.988281 C 10.1875 120.257812 11.835938 117.792969 14.359375 116.75 C 16.882812 115.703125 19.785156 116.28125 21.714844 118.210938 L 139.425781 235.925781 C 142.0625 238.558594 142.0625 242.835938 139.425781 245.472656 C 136.789062 248.109375 132.511719 248.109375 129.875 245.472656 L 23.695312 139.289062 L 23.695312 358.40625 C 23.695312 362.136719 20.671875 365.160156 16.941406 365.160156 Z M 358.085938 365.160156 C 356.359375 365.160156 354.632812 364.5 353.3125 363.179688 L 12.167969 22.035156 C 9.53125 19.398438 9.53125 15.121094 12.167969 12.488281 C 14.804688 9.847656 19.078125 9.847656 21.714844 12.488281 L 362.859375 353.632812 C 365.5 356.265625 365.5 360.542969 362.859375 363.179688 C 361.539062 364.5 359.8125 365.160156 358.085938 365.160156 " fill-opacity="1" fill-rule="nonzero"/></g><g fill="#f9fafb" fill-opacity="1"><g transform="translate(92.9634, 348.476719)"><g><path d="M 32.140625 -3.203125 L 32.140625 -26.015625 C 32.140625 -26.273438 32.144531 -26.515625 32.15625 -26.734375 C 32.175781 -26.960938 32.222656 -27.164062 32.296875 -27.34375 C 32.378906 -27.519531 32.488281 -27.660156 32.625 -27.765625 C 32.769531 -27.867188 32.96875 -27.921875 33.21875 -27.921875 C 33.65625 -27.921875 33.9375 -27.734375 34.0625 -27.359375 C 34.195312 -26.984375 34.265625 -26.535156 34.265625 -26.015625 L 34.265625 -1.609375 C 34.265625 -0.535156 33.984375 0 33.421875 0 C 33.035156 0 32.554688 -0.257812 31.984375 -0.78125 L 6.140625 -24.71875 L 6.140625 -1.75 C 6.140625 -1.269531 6.066406 -0.859375 5.921875 -0.515625 C 5.785156 -0.171875 5.515625 0 5.109375 0 C 4.628906 0 4.328125 -0.171875 4.203125 -0.515625 C 4.078125 -0.859375 4.015625 -1.269531 4.015625 -1.75 L 4.015625 -26.296875 C 4.015625 -26.796875 4.101562 -27.179688 4.28125 -27.453125 C 4.46875 -27.722656 4.722656 -27.859375 5.046875 -27.859375 C 5.460938 -27.859375 5.945312 -27.601562 6.5 -27.09375 Z M 32.140625 -3.203125 "/></g></g></g><g fill="#f9fafb" fill-opacity="1"><g transform="translate(172.315377, 348.476719)"><g><path d="M 29.765625 -0.875 C 29.765625 -0.625 29.71875 -0.441406 29.625 -0.328125 C 29.539062 -0.210938 29.425781 -0.128906 29.28125 -0.078125 C 29.144531 -0.0234375 28.976562 0 28.78125 0 C 28.582031 0 28.359375 0 28.109375 0 L 4.6875 0 C 4.519531 0 4.394531 -0.00390625 4.3125 -0.015625 C 4.226562 -0.0351562 4.164062 -0.078125 4.125 -0.140625 C 4.082031 -0.210938 4.054688 -0.300781 4.046875 -0.40625 C 4.035156 -0.519531 4.03125 -0.675781 4.03125 -0.875 L 4.03125 -26.75 C 4.03125 -27 4.035156 -27.195312 4.046875 -27.34375 C 4.054688 -27.5 4.085938 -27.617188 4.140625 -27.703125 C 4.191406 -27.785156 4.28125 -27.84375 4.40625 -27.875 C 4.53125 -27.90625 4.71875 -27.921875 4.96875 -27.921875 L 27.859375 -27.921875 C 28.109375 -27.921875 28.335938 -27.921875 28.546875 -27.921875 C 28.765625 -27.921875 28.960938 -27.894531 29.140625 -27.84375 C 29.316406 -27.800781 29.453125 -27.71875 29.546875 -27.59375 C 29.648438 -27.476562 29.703125 -27.296875 29.703125 -27.046875 C 29.703125 -26.847656 29.648438 -26.691406 29.546875 -26.578125 C 29.453125 -26.472656 29.316406 -26.394531 29.140625 -26.34375 C 28.960938 -26.300781 28.765625 -26.28125 28.546875 -26.28125 C 28.335938 -26.28125 28.109375 -26.28125 27.859375 -26.28125 L 6.171875 -26.28125 L 6.171875 -15.296875 L 27.734375 -15.296875 C 28.097656 -15.296875 28.40625 -15.242188 28.65625 -15.140625 C 28.90625 -15.035156 29.03125 -14.816406 29.03125 -14.484375 C 29.03125 -14.117188 28.925781 -13.878906 28.71875 -13.765625 C 28.507812 -13.648438 28.238281 -13.59375 27.90625 -13.59375 L 6.171875 -13.59375 L 6.171875 -1.65625 L 27.90625 -1.65625 C 28.15625 -1.65625 28.390625 -1.65625 28.609375 -1.65625 C 28.828125 -1.65625 29.019531 -1.628906 29.1875 -1.578125 C 29.363281 -1.523438 29.503906 -1.441406 29.609375 -1.328125 C 29.710938 -1.222656 29.765625 -1.070312 29.765625 -0.875 Z M 29.765625 -0.875 "/></g></g></g><g fill="#f9fafb" fill-opacity="1"><g transform="translate(246.028074, 348.476719)"><g><path d="M 17.96875 -14.9375 L 30.40625 -27.40625 C 30.738281 -27.738281 31.070312 -27.90625 31.40625 -27.90625 C 31.644531 -27.90625 31.832031 -27.820312 31.96875 -27.65625 C 32.113281 -27.488281 32.1875 -27.285156 32.1875 -27.046875 C 32.1875 -26.910156 32.148438 -26.757812 32.078125 -26.59375 C 32.015625 -26.425781 31.910156 -26.269531 31.765625 -26.125 L 19.28125 -13.71875 L 31.984375 -1.875 C 32.203125 -1.675781 32.359375 -1.472656 32.453125 -1.265625 C 32.546875 -1.054688 32.59375 -0.867188 32.59375 -0.703125 C 32.59375 -0.503906 32.53125 -0.335938 32.40625 -0.203125 C 32.28125 -0.0664062 32.117188 0 31.921875 0 C 31.546875 0 31.148438 -0.203125 30.734375 -0.609375 L 17.96875 -12.484375 L 5.21875 -0.578125 C 4.96875 -0.335938 4.75 -0.179688 4.5625 -0.109375 C 4.375 -0.0351562 4.195312 0 4.03125 0 C 3.8125 0 3.640625 -0.0625 3.515625 -0.1875 C 3.390625 -0.3125 3.328125 -0.472656 3.328125 -0.671875 C 3.328125 -1.054688 3.539062 -1.453125 3.96875 -1.859375 L 16.671875 -13.71875 L 4.1875 -26.125 C 3.882812 -26.425781 3.734375 -26.734375 3.734375 -27.046875 C 3.734375 -27.285156 3.804688 -27.488281 3.953125 -27.65625 C 4.109375 -27.820312 4.300781 -27.90625 4.53125 -27.90625 C 4.875 -27.90625 5.210938 -27.738281 5.546875 -27.40625 Z M 17.96875 -14.9375 "/></g></g></g></svg>