<svg xmlns="http://www.w3.org/2000/svg" xmlns:xlink="http://www.w3.org/1999/xlink" width="500" zoomAndPan="magnify" viewBox="0 0 375 374.999991" height="500" preserveAspectRatio="xMidYMid meet" version="1.0"><defs><clipPath id="5714a05dda"><path d="M 32.453125 0 L 342.574219 0 L 342.574219 296.796875 L 32.453125 296.796875 Z M 32.453125 0 " clip-rule="nonzero"/></clipPath><clipPath id="5576db0805"><path d="M 149.527344 279.335938 L 225.523438 279.335938 L 225.523438 374.980469 L 149.527344 374.980469 Z M 149.527344 279.335938 " clip-rule="nonzero"/></clipPath></defs><g clip-path="url(#5714a05dda)"><path fill="#020617" d="M 320.136719 147.445312 C 272.847656 92.472656 214.097656 62.816406 187.511719 -0.00390625 C 160.929688 62.816406 102.179688 92.472656 54.890625 147.445312 C 22.648438 184.925781 25.230469 240.933594 62.132812 273.835938 C 78.167969 288.132812 97.921875 295.605469 117.828125 296.453125 C 75.527344 283.78125 58.195312 244.078125 60.992188 210.84375 C 63.089844 185.9375 77.773438 170.46875 77.773438 170.46875 C 62.304688 209.007812 73.839844 249.125 111.859375 267.699219 C 152.222656 287.421875 187.511719 267.699219 187.511719 267.699219 C 187.511719 267.699219 222.804688 287.421875 263.167969 267.699219 C 301.1875 249.125 312.722656 209.007812 297.253906 170.46875 C 297.253906 170.46875 311.9375 185.9375 314.035156 210.84375 C 316.832031 244.078125 299.5 283.78125 257.199219 296.453125 C 277.105469 295.605469 296.859375 288.132812 312.894531 273.835938 C 349.796875 240.933594 352.378906 184.925781 320.136719 147.445312 " fill-opacity="1" fill-rule="nonzero"/></g><g clip-path="url(#5576db0805)"><path fill="#020617" d="M 187.511719 279.539062 C 187.511719 279.539062 183.175781 325.160156 149.617188 355.574219 L 187.511719 374.980469 L 225.410156 355.574219 C 191.851562 325.160156 187.511719 279.539062 187.511719 279.539062 " fill-opacity="1" fill-rule="nonzero"/></g><path fill="#f8fafc" d="M 196.234375 155.285156 L 244.007812 203.074219 C 244.0625 203.132812 244.128906 203.148438 244.207031 203.117188 C 244.28125 203.089844 244.320312 203.03125 244.316406 202.949219 L 244.316406 123.648438 C 244.316406 123.398438 244.40625 123.1875 244.582031 123.011719 L 255.480469 112.058594 C 255.859375 111.679688 256.070312 111.757812 256.117188 112.292969 C 256.132812 112.484375 256.109375 112.675781 256.046875 112.871094 C 256 113.023438 255.976562 113.175781 255.976562 113.332031 L 255.984375 230.824219 C 255.984375 231.320312 255.808594 231.390625 255.457031 231.039062 L 143.335938 118.871094 C 143.035156 118.570312 142.886719 118.207031 142.886719 117.777344 L 142.847656 102.640625 C 142.847656 102.132812 143.023438 102.058594 143.382812 102.414062 L 187.367188 146.433594 C 187.574219 146.640625 187.78125 146.636719 187.988281 146.425781 L 232.09375 102.277344 C 232.183594 102.1875 232.285156 102.167969 232.402344 102.214844 C 232.519531 102.261719 232.578125 102.351562 232.582031 102.476562 L 232.566406 174.363281 C 232.5625 174.480469 232.507812 174.566406 232.394531 174.609375 C 232.28125 174.65625 232.183594 174.632812 232.101562 174.546875 L 212.84375 155.285156 C 212.667969 155.109375 212.667969 154.933594 212.84375 154.757812 L 220.371094 147.261719 C 220.695312 146.9375 220.859375 146.542969 220.859375 146.078125 L 220.84375 131.15625 C 220.839844 130.453125 220.585938 130.351562 220.089844 130.847656 L 196.234375 154.710938 C 196.042969 154.902344 196.042969 155.09375 196.234375 155.285156 Z M 196.234375 155.285156 " fill-opacity="1" fill-rule="nonzero"/><path fill="#f8fafc" d="M 131.101562 140.382812 L 131.101562 219.761719 C 131.101562 219.828125 131.078125 219.882812 131.03125 219.929688 L 119.84375 231.164062 C 119.769531 231.242188 119.679688 231.257812 119.582031 231.21875 C 119.480469 231.175781 119.433594 231.101562 119.433594 230.992188 L 119.425781 112.207031 C 119.425781 112.097656 119.472656 112.023438 119.574219 111.984375 C 119.671875 111.941406 119.761719 111.957031 119.835938 112.035156 L 232.449219 224.71875 C 232.496094 224.765625 232.519531 224.820312 232.519531 224.886719 L 232.566406 240.738281 C 232.566406 240.84375 232.515625 240.917969 232.417969 240.960938 C 232.316406 241 232.230469 240.984375 232.152344 240.90625 L 187.871094 196.59375 C 187.757812 196.480469 187.644531 196.480469 187.53125 196.59375 L 143.28125 240.882812 C 143.203125 240.960938 143.117188 240.980469 143.019531 240.9375 C 142.917969 240.894531 142.867188 240.820312 142.871094 240.714844 L 142.871094 168.785156 C 142.867188 168.675781 142.917969 168.601562 143.019531 168.558594 C 143.117188 168.519531 143.203125 168.535156 143.28125 168.613281 L 162.621094 188.023438 C 162.734375 188.136719 162.734375 188.25 162.621094 188.363281 L 154.605469 196.371094 C 154.558594 196.417969 154.535156 196.472656 154.535156 196.539062 L 154.515625 212.515625 C 154.511719 212.621094 154.5625 212.695312 154.660156 212.738281 C 154.761719 212.777344 154.847656 212.761719 154.925781 212.683594 L 179.277344 188.339844 C 179.390625 188.226562 179.390625 188.113281 179.277344 188 L 131.511719 140.210938 C 131.4375 140.136719 131.347656 140.117188 131.25 140.160156 C 131.148438 140.199219 131.101562 140.273438 131.101562 140.382812 Z M 131.101562 140.382812 " fill-opacity="1" fill-rule="nonzero"/></svg>